<svg xmlns="http://www.w3.org/2000/svg" xmlns:xlink="http://www.w3.org/1999/xlink" viewBox="0 0 4625.88 740.28"><defs><style>.cls-1,.cls-2,.cls-3,.cls-4,.cls-5,.cls-6{fill:none;stroke-width:100px;}.cls-1{stroke:url(#linear-gradient);}.cls-2{stroke:#2182da;}.cls-3{stroke:url(#linear-gradient-2);}.cls-4{stroke:url(#linear-gradient-3);}.cls-5{stroke:url(#linear-gradient-4);}.cls-6{stroke:url(#linear-gradient-5);}.cls-7{fill:#fff;}.cls-8{fill:#2082da;}</style><linearGradient id="linear-gradient" x1="-5487.86" y1="74.3" x2="-5487.86" y2="346.36" gradientTransform="translate(-3607.36 -3020.9) rotate(-137.22)" gradientUnits="userSpaceOnUse"><stop offset="0" stop-color="#fff"/><stop offset="0" stop-color="#2182da"/><stop offset="1" stop-color="#185bac"/></linearGradient><linearGradient id="linear-gradient-2" x1="-4721.5" y1="-3339.75" x2="-4721.5" y2="-3067.7" gradientTransform="translate(-5006.73 1465.72) rotate(132.78)" gradientUnits="userSpaceOnUse"><stop offset="0" stop-color="#2182da"/><stop offset="1" stop-color="#185bac"/></linearGradient><linearGradient id="linear-gradient-3" x1="-1508.02" y1="-1989.83" x2="-1508.02" y2="-1717.77" gradientTransform="translate(21.65 2576.48) rotate(42.78)" gradientUnits="userSpaceOnUse"><stop offset="0" stop-color="#2180d8"/><stop offset="1" stop-color="#185bac"/></linearGradient><linearGradient id="linear-gradient-4" x1="-2274.38" y1="1419.23" x2="-2274.38" y2="1691.28" gradientTransform="translate(590.66 -2163.29) rotate(-47.22)" xlink:href="#linear-gradient-2"/><linearGradient id="linear-gradient-5" x1="-4031.71" y1="-2974.83" x2="-4031.71" y2="-2702.78" gradientTransform="translate(-4451.73 1400.78) rotate(132.78)" gradientUnits="userSpaceOnUse"><stop offset="0" stop-color="#2182da"/><stop offset="0.5" stop-color="#185bac"/><stop offset="1" stop-color="#2182da"/></linearGradient></defs><g id="Layer_2" data-name="Layer 2"><g id="Layer_1-2" data-name="Layer 1"><g id="White"><line class="cls-1" x1="655.52" y1="452.47" x2="470.73" y2="652.14"/><line class="cls-2" x1="467.91" y1="460.63" x2="310.23" y2="314.7"/><path class="cls-2" d="M647.73,265.63A132.63,132.63,0,1,1,467.56,460.31"/><line class="cls-3" x1="451.74" y1="84.23" x2="651.4" y2="269.02"/><line class="cls-2" x1="460.78" y1="272.37" x2="314.85" y2="430.05"/><path class="cls-2" d="M265.78,92.54A132.63,132.63,0,0,1,460.46,272.72"/><line class="cls-4" x1="81.67" y1="291.47" x2="266.46" y2="91.81"/><line class="cls-2" x1="272.37" y1="279.66" x2="430.05" y2="425.59"/><path class="cls-2" d="M92.54,474.66A132.63,132.63,0,1,1,272.72,280"/><line class="cls-5" x1="287.07" y1="654.7" x2="87.41" y2="469.91"/><line class="cls-2" x1="279.8" y1="467.91" x2="425.74" y2="310.23"/><path class="cls-2" d="M474.81,647.73A132.63,132.63,0,1,1,280.13,467.56"/><line class="cls-6" x1="270.38" y1="277.67" x2="470.05" y2="462.46"/><path class="cls-7" d="M1089.79,174c71.44,0,126.36,53.46,126.36,136.57,0,82.62-54.92,138.51-126.36,138.51-48.61,0-83.11-26.24-99.64-53.46V571.1H945.93V178.4h44.22v49.09C1006.19,199.3,1041.18,174,1089.79,174Zm-9.24,38.39c-48.11,0-90.4,36.94-90.4,98.66,0,62.7,42.29,99.15,90.4,99.15,49.09,0,90.4-36.94,90.4-99.63S1129.64,212.42,1080.55,212.42Z"/><path class="cls-7" d="M1318.69,444.74h-44.23V178.4h44.23v43.26c15.06-29.65,43.74-48.12,86-48.12v45.69h-11.66c-42.29,0-74.36,19-74.36,80.68Z"/><path class="cls-7" d="M1571.89,449.11c-75.33,0-132.68-53.46-132.68-138,0-84.08,59.29-137,134.62-137,75.82,0,134.63,53,134.63,137C1708.46,395.65,1647.7,449.11,1571.89,449.11Zm0-38.88c46.17,0,91.37-31.59,91.37-99.15,0-67.06-44.23-98.66-89.91-98.66-46.66,0-88.94,31.6-88.94,98.66C1484.41,378.64,1525.72,410.23,1571.89,410.23Z"/><path class="cls-7" d="M1880,174c66.1,0,109.35,34,123,89.91h-47.63c-9.23-32.07-36-52.49-75.33-52.49-48.6,0-84.56,34.51-84.56,99.63,0,66.1,36,100.61,84.56,100.61,39.37,0,65.61-19,75.33-52.49H2003c-13.61,53-56.86,89.91-123,89.91-75.82,0-129.76-53.46-129.76-138C1750.25,227.49,1804.19,174,1880,174Z"/><path class="cls-7" d="M2298,444.74h-44.23V405.37c-17,27.7-49.57,43.25-85,43.25-61.23,0-109.35-37.9-109.35-114.21v-156h43.74V328.58c0,53.95,29.65,81.65,74.36,81.65,45.69,0,76.3-28.19,76.3-85.54V178.4H2298Z"/><path class="cls-7" d="M2417,444.74h-44.23V178.4H2417v43.26c15.06-29.65,43.74-48.12,86-48.12v45.69H2491.4c-42.29,0-74.36,19-74.36,80.68Z"/><path class="cls-8" d="M2575,1h145.8V68.08h-68V478.76h68v67.55H2575Z"/><path class="cls-8" d="M3003.63,170.14H2877.76v69h111.29v64.15H2877.76v74.84h125.87v66.59h-209V103.56h209Z"/><path class="cls-8" d="M3217,546.31h-145.8V478.76h68V68.08h-68V1H3217Z"/><path class="cls-7" d="M3507.6,294.07c0-54.43-29.64-82.13-74.36-82.13-45.19,0-76.3,28.19-76.3,85.54V444.74h-44.22V178.4h44.22v37.91c17.5-27.7,49.57-42.77,85.54-42.77,61.72,0,108.87,37.91,108.87,114.22v157H3507.6Z"/><path class="cls-7" d="M3733.59,174c48.6,0,83.6,24.3,99.15,53V178.4h44.71V450.57c0,73.39-49.09,125.39-127.33,125.39-70,0-120-35.48-128.8-92.34h43.75c9.72,32.07,41.31,53.94,85,53.94,47.14,0,82.62-30.13,82.62-87V394.68c-16,28.67-50.55,54.43-99.15,54.43-71.44,0-126.36-55.89-126.36-138.51C3607.23,227.49,3662.15,174,3733.59,174Zm8.75,38.39c-48.6,0-89.91,35.48-89.91,98.18s41.31,99.63,89.91,99.63,90.4-36.45,90.4-99.15C3832.74,249.36,3790.94,212.42,3742.34,212.42Z"/><path class="cls-7" d="M3945,105a29.68,29.68,0,0,1,30.13-30.14c16,0,29.16,13.13,29.16,30.14s-13.12,30.13-29.16,30.13A29.67,29.67,0,0,1,3945,105Zm7.29,73.38h44.23V444.74h-44.23Z"/><path class="cls-7" d="M4266.73,294.07c0-54.43-29.65-82.13-74.36-82.13-45.2,0-76.31,28.19-76.31,85.54V444.74h-44.22V178.4h44.22v37.91c17.5-27.7,49.58-42.77,85.54-42.77,61.72,0,108.87,37.91,108.87,114.22v157h-43.74Z"/><path class="cls-7" d="M4498.06,449.11c-75.82,0-131.71-53.46-131.71-138,0-84.08,53.95-137,131.71-137,77.28,0,127.82,54.43,127.82,127.33a237.78,237.78,0,0,1-1.46,26.73H4411.55c3.4,54,41.31,83.6,86.51,83.6,39.85,0,65.13-20.41,74.85-49.09h47.63C4606.93,411.2,4564.16,449.11,4498.06,449.11Zm-86-157H4580.2c.48-52-38.4-80.68-84.08-80.68C4452.86,211.45,4416.9,240.13,4412,292.13Z"/></g></g></g></svg>